HIERARCHY
ROOT Pelvis
{
	OFFSET 0.000000 0.000000 0.000000
	CHANNELS 6 Xposition Yposition Zposition Zrotation Yrotation Xrotation 
	JOINT Left_hip
	{
		OFFSET 0.067986 -0.089946 -0.007639
		CHANNELS 3 Zrotation Yrotation Xrotation
		JOINT Left_knee
		{
			OFFSET 0.036308 -0.388288 -0.004016
			CHANNELS 3 Zrotation Yrotation Xrotation
			JOINT Left_ankle
			{
				OFFSET -0.012264 -0.413250 -0.042878
				CHANNELS 3 Zrotation Yrotation Xrotation
				JOINT Left_foot
				{
					OFFSET 0.024043 -0.058563 0.118570
					CHANNELS 3 Zrotation Yrotation Xrotation
					End Site
					{
						OFFSET 0.000000 0.000000 0.000000
					}
				}
			}
		}
	}
	JOINT Right_hip
	{
		OFFSET -0.065648 -0.089374 -0.003858
		CHANNELS 3 Zrotation Yrotation Xrotation
		JOINT Right_knee
		{
			OFFSET -0.042132 -0.395021 -0.006361
			CHANNELS 3 Zrotation Yrotation Xrotation
			JOINT Right_ankle
			{
				OFFSET 0.014805 -0.413264 -0.041054
				CHANNELS 3 Zrotation Yrotation Xrotation
				JOINT Right_foot
				{
					OFFSET -0.021758 -0.049013 0.121832
					CHANNELS 3 Zrotation Yrotation Xrotation
					End Site
					{
						OFFSET 0.000000 0.000000 0.000000
					}
				}
			}
		}
	}
	JOINT Spine1
	{
		OFFSET -0.002755 0.104406 -0.022277
		CHANNELS 3 Zrotation Yrotation Xrotation
		JOINT Spine2
		{
			OFFSET 0.004136 0.129393 -0.002186
			CHANNELS 3 Zrotation Yrotation Xrotation
			JOINT Spine3
			{
				OFFSET 0.001906 0.049304 0.025578
				CHANNELS 3 Zrotation Yrotation Xrotation
				JOINT Neck
				{
					OFFSET -0.004620 0.210958 -0.044063
					CHANNELS 3 Zrotation Yrotation Xrotation
					JOINT Head
					{
						OFFSET 0.003833 0.067393 0.052435
						CHANNELS 3 Zrotation Yrotation Xrotation
						End Site
						{
							OFFSET 0.000000 0.000000 0.000000
						}
					}
				}
				JOINT Left_collar
				{
					OFFSET 0.070771 0.116689 -0.037192
					CHANNELS 3 Zrotation Yrotation Xrotation
					JOINT Left_shoulder
					{
						OFFSET 0.080652 0.031596 -0.005617
						CHANNELS 3 Zrotation Yrotation Xrotation
						JOINT Left_elbow
						{
							OFFSET 0.262654 -0.015020 -0.027939
							CHANNELS 3 Zrotation Yrotation Xrotation
							JOINT Left_wrist
							{
								OFFSET 0.250438 0.010062 -0.000990
								CHANNELS 3 Zrotation Yrotation Xrotation
								JOINT Left_palm
								{
									OFFSET 0.081198 -0.010037 -0.013706
									CHANNELS 3 Zrotation Yrotation Xrotation
									End Site
									{
										OFFSET 0.000000 0.000000 0.000000
									}
								}
							}
						}
					}
				}
				JOINT Right_collar
				{
					OFFSET -0.072972 0.115556 -0.040762
					CHANNELS 3 Zrotation Yrotation Xrotation
					JOINT Right_shoulder
					{
						OFFSET -0.082917 0.031841 -0.006673
						CHANNELS 3 Zrotation Yrotation Xrotation
						JOINT Right_elbow
						{
							OFFSET -0.252882 -0.013790 -0.020410
							CHANNELS 3 Zrotation Yrotation Xrotation
							JOINT Right_wrist
							{
								OFFSET -0.255570 0.009163 -0.005138
								CHANNELS 3 Zrotation Yrotation Xrotation
								JOINT Right_palm
								{
									OFFSET -0.080804 -0.007282 -0.010415
									CHANNELS 3 Zrotation Yrotation Xrotation
									End Site
									{
										OFFSET 0.000000 0.000000 0.000000
									}
								}
							}
						}
					}
				}
			}
		}
	}
}
MOTION
Frames: 14
Frame Time: 0.100000
0.172474 0.868294 -0.278501 177.578950 23.657784 -83.101503 12.087882 1.510445 -81.249361 -11.799316 18.285833 120.418506 1.664387 -7.249647 23.916028 -22.242056 19.721846 -34.502146 -10.134871 -10.339151 -64.328416 0.434158 -16.344761 87.050151 -7.942047 -1.445348 9.047355 16.053658 -13.451088 -12.305320 -0.366787 -0.114413 68.773542 -1.087660 -4.894671 0.450176 0.873284 -5.605554 5.545029 -8.854873 3.373530 13.212389 10.090126 8.706194 -16.995601 -0.890396 -12.159344 1.812193 -13.537689 -13.242580 -7.272982 12.202214 -55.455658 0.765860 -3.660082 -1.826609 7.502611 -5.837729 3.958549 -16.684767 -1.567436 4.805944 3.315329 59.962373 -16.323193 12.542733 -9.633410 70.919290 -5.300068 10.161442 -2.275406 -42.367878 6.877749 5.403797 -4.377317 
0.171216 0.867778 -0.278050 176.575067 22.989036 -83.491774 11.331178 0.940040 -80.453227 -12.168600 18.115154 115.512571 0.525420 -7.839103 23.520187 -21.281478 19.047218 -33.765637 -10.302254 -9.067649 -64.016234 1.809955 -13.427473 86.090585 -4.868259 -0.079234 9.620849 13.241646 -12.225042 -13.777047 0.186744 -0.659867 68.071294 -0.373077 -4.762626 0.258133 0.947922 -5.245326 5.900688 -7.633408 3.568364 11.999444 9.342115 8.118540 -16.015045 -2.991196 -8.502760 1.698033 -17.748971 -10.733243 -6.917260 11.024803 -53.639158 3.188199 -1.830999 -1.998491 10.914540 -5.812523 1.666863 -15.887727 0.728886 2.500266 2.534664 57.840938 -13.666512 12.147632 -16.228919 72.159718 -4.224228 1.252865 -3.876579 -21.457880 9.099823 7.540368 -5.587295 
0.170640 0.867055 -0.275908 175.831187 21.853568 -83.708121 10.348387 1.340080 -78.418254 -11.430637 17.991637 108.560156 0.840831 -6.824758 22.159493 -19.815193 18.844789 -31.714118 -10.119650 -7.977235 -62.370164 2.177128 -11.427419 85.662795 -4.609249 -0.544518 9.588967 13.626556 -11.736762 -14.563061 1.038408 -1.252425 67.687582 -0.066481 -3.883672 0.381773 1.136243 -4.517452 5.860466 -6.327509 2.590342 11.301080 8.570563 7.816739 -15.171513 -5.996248 -5.778129 1.774194 -21.397190 -8.014680 -5.940052 8.441187 -51.137609 7.493674 -1.974550 -1.495833 14.552382 -5.317982 0.170730 -16.152348 2.952309 2.314538 2.208593 54.405685 -10.216390 11.984203 -14.462900 70.643495 2.959654 -2.698571 -3.474383 -4.537444 9.131005 8.663065 -6.505811 
0.170475 0.867696 -0.273631 175.442835 21.181282 -82.661608 9.394055 1.305731 -75.479929 -11.247602 17.594206 99.614099 0.176023 -5.774743 21.718396 -17.106011 19.135206 -29.593081 -10.099522 -7.924174 -62.647888 0.763936 -12.031662 84.475124 -3.939456 -3.817713 13.063318 12.216576 -9.972925 -14.502463 1.494388 -1.772715 66.635605 -0.232511 -2.615183 0.703413 1.248335 -4.007949 5.801399 -5.024947 1.237187 10.052332 7.770729 7.911439 -13.965360 -8.657769 -3.617864 2.330901 -24.870282 -5.759646 -4.469064 6.045136 -48.345642 10.796055 -3.385499 -0.937223 15.932821 -4.759455 -0.688368 -17.676572 4.239782 3.096780 1.951218 51.831260 -6.563048 11.948360 -12.566424 66.241809 4.813663 -0.709489 -3.277368 1.833058 7.667206 8.387895 -6.729987 
0.170054 0.866534 -0.270444 175.295882 20.377552 -81.424841 8.895776 0.867464 -72.544274 -12.019725 15.564277 91.083160 0.413614 -4.101700 21.187858 -15.430194 18.058672 -27.358205 -9.617012 -7.690154 -64.337833 1.111458 -12.991332 85.202807 -3.710965 -2.455823 11.250907 13.232921 -10.876350 -13.357800 1.739952 -2.224082 66.160403 -0.448635 -1.642301 0.703960 1.393142 -3.420356 5.604608 -4.322338 1.054915 9.418309 7.199337 7.669228 -13.786875 -10.743021 -2.331604 2.215578 -28.210912 -3.237982 -1.929127 4.143894 -45.079014 13.144608 -2.070218 -1.065660 16.945681 -4.964216 -0.879732 -18.953378 5.051158 4.112028 1.983581 48.898356 -3.406400 11.509465 -8.217643 62.147944 9.160308 -1.027476 -2.750765 5.792964 7.117805 8.145538 -7.064392 
0.168763 0.864959 -0.266027 175.017350 20.031962 -80.446150 8.620289 -0.180010 -70.972271 -12.341153 13.785703 85.929399 1.022903 -2.638522 20.234085 -14.139095 17.562943 -25.607864 -9.507895 -6.589703 -65.963557 0.670803 -12.963702 86.124665 -4.578474 -4.323455 10.140461 13.580473 -10.673863 -12.436575 1.839931 -2.767065 66.245080 -0.605237 -0.983524 0.657905 1.391345 -3.145824 5.619539 -4.201206 0.462991 8.539647 6.561822 7.508835 -14.022899 -12.875130 -1.750504 2.372288 -29.940373 -1.788243 -0.715501 2.821100 -41.575157 13.308268 0.449204 -0.941939 17.505185 -4.855284 -1.472262 -19.766258 6.194373 5.039204 1.892394 46.426332 -1.373089 11.375599 -8.353002 59.131060 8.584262 -3.421816 -2.399973 10.332736 6.559896 8.203283 -7.744812 
0.167443 0.864118 -0.263024 174.840855 19.632008 -79.245336 9.320794 0.088352 -71.014105 -11.556418 13.480243 84.464396 0.169433 -1.203220 22.509444 -13.294308 15.849756 -24.531052 -9.158532 -6.163745 -67.779534 1.248261 -13.739725 86.699269 -4.951344 -1.494389 9.475232 15.708648 -12.714289 -11.478843 1.770092 -2.964019 66.787936 -0.555442 -0.778812 0.394121 1.630359 -2.895397 5.188080 -4.722614 0.231874 7.644098 6.625993 7.404376 -14.526063 -14.166595 -1.966423 2.325772 -31.600322 -0.858876 1.254210 2.169081 -40.107758 12.523073 3.069267 -1.891814 16.147207 -5.413666 -1.571222 -19.905834 7.050244 6.250385 1.974567 44.533456 1.238633 10.926147 -7.644860 56.052077 8.357416 -4.862868 -1.857646 11.581801 6.426988 8.103581 -7.955983 
0.165800 0.864092 -0.260773 174.566843 19.466679 -78.536609 10.012161 0.504021 -71.687746 -10.386041 14.438256 84.474142 0.010086 -0.623404 23.602929 -12.743846 15.694140 -23.650432 -9.439230 -6.007484 -68.588150 1.338526 -14.046795 86.594559 -4.788729 -0.355707 11.508327 16.715596 -13.290232 -10.988935 1.733023 -3.088907 67.485202 -0.470196 -0.528592 1.050618 1.865805 -2.753891 4.509712 -5.131439 -0.814998 6.365651 6.721894 6.985108 -14.684276 -15.281348 -3.222748 2.588769 -31.988293 -1.938988 2.186170 4.618648 -43.784592 8.982574 2.432137 -2.507166 12.425369 -5.328863 -1.290857 -18.922918 7.759565 8.419070 2.233028 42.433185 3.916941 10.510297 -8.915910 55.762844 4.580142 -2.696222 -1.835927 8.675658 5.698213 7.526862 -7.376035 
0.164723 0.864411 -0.259580 174.119877 19.500539 -78.158451 9.950113 0.228731 -71.824714 -10.553391 15.070198 83.637839 -1.556850 -1.982100 25.891605 -12.984853 16.168366 -23.215022 -9.623433 -5.526170 -69.196530 1.017336 -14.161878 86.334007 -4.703974 -0.747817 13.735838 16.382310 -11.382270 -9.907037 1.796628 -3.402900 68.256050 -0.442570 -0.321969 2.206751 1.957095 -2.619418 3.612938 -5.434856 -1.939863 4.562458 6.541343 5.863698 -14.034986 -16.530045 -6.728645 2.685250 -30.051878 -5.202527 2.393375 10.152490 -48.319230 0.804550 2.252762 -3.783718 7.955504 -4.766815 -0.951381 -17.189415 8.781109 12.761612 2.288945 38.278165 7.689203 9.317150 -12.345615 55.411610 -4.211037 -1.317909 -0.685206 3.531411 4.851821 6.678313 -5.913893 
0.162489 0.864295 -0.256990 173.811815 19.284402 -78.027415 10.006034 -0.881678 -72.045590 -10.534045 14.902578 83.405522 -2.259000 -2.324328 27.719813 -14.267033 15.981249 -23.253267 -10.341522 -4.600247 -71.761275 0.716314 -15.121033 89.371498 -6.298166 0.430702 10.333929 17.867922 -11.176071 -7.651335 2.168879 -4.084090 69.157439 -0.526358 0.076284 2.703132 1.882000 -2.166343 2.187158 -5.880411 -2.451911 3.774333 6.239240 4.357650 -13.602884 -18.230179 -11.849041 2.314573 -27.682440 -10.056328 3.677566 17.260055 -52.092004 -10.551283 3.598798 -4.898389 1.571365 -3.885744 -0.299311 -14.213532 10.206217 18.151344 2.781589 32.291303 12.341508 7.407948 -16.738249 54.767717 -14.340106 -5.003945 0.432934 -1.502093 4.422542 6.157479 -4.672128 
0.160767 0.863784 -0.252725 173.719086 19.426501 -78.331091 9.912299 -1.734560 -72.715019 -10.118352 15.112395 84.779472 -0.500027 -2.662543 24.804956 -15.611596 16.086391 -22.506236 -10.795313 -3.891580 -76.782337 -0.889322 -15.442606 98.623266 -5.771503 0.015588 11.793640 17.437807 -9.790824 -7.305984 1.927336 -4.677105 70.350977 -0.629224 0.698003 2.470162 1.840591 -1.876157 0.903744 -6.372533 -3.228636 2.534162 5.690953 3.848665 -12.820281 -19.163098 -17.976756 2.628936 -26.347175 -15.036394 4.678308 21.654780 -53.739032 -17.145355 5.370178 -5.974266 -1.436496 -3.567896 -0.096076 -13.684142 10.286946 24.388066 3.249563 27.367504 16.866718 5.368116 -18.053206 52.722696 -21.669149 -7.882878 1.326244 -7.602997 4.240819 5.613317 -4.261560 
0.160025 0.864488 -0.253673 173.196494 20.538978 -78.625692 8.870491 -2.989357 -73.319644 -10.582403 15.753202 85.193436 2.626397 -3.328861 20.622956 -17.319835 16.066446 -22.140425 -11.213148 -3.589103 -83.374884 -0.964207 -15.514752 111.957323 -2.111486 1.262144 15.629705 14.335856 -6.388460 -8.478844 1.607258 -5.643579 71.533484 -0.235491 0.948944 2.222397 1.748775 -1.729561 0.498418 -6.821159 -3.312090 0.336080 5.031214 3.137923 -11.986178 -18.323167 -24.001126 2.020778 -26.178573 -20.021825 4.969177 20.555474 -50.999447 -21.576239 5.753204 -5.638649 -5.854990 -4.171144 -0.550430 -13.104490 8.928476 29.315862 2.385493 23.440201 20.723917 3.936123 -17.078541 52.072269 -25.171623 -8.438046 1.597638 -11.290025 5.345885 5.862779 -4.519397 
0.161761 0.866669 -0.260194 173.133025 21.804964 -78.837795 8.655823 -3.333459 -74.772428 -10.665317 17.053121 87.453733 6.587023 -2.224772 11.127877 -17.311325 16.992211 -20.660819 -11.831649 -3.824282 -86.701620 -0.238997 -15.729291 123.770743 0.852239 1.676541 15.063992 10.764068 -2.583544 -9.348775 1.291015 -6.086094 72.527326 0.605492 0.606200 2.770501 1.814048 -1.819114 0.548096 -6.575568 -1.623580 -0.767274 3.587238 2.774458 -10.657984 -18.195714 -28.979536 1.967069 -23.998522 -22.679686 3.720996 18.322198 -48.280226 -25.376181 4.280546 -5.211997 -9.191987 -4.210678 -0.923910 -12.309089 8.773549 33.090690 1.929509 19.242357 23.492514 2.955810 -13.586419 53.437572 -24.232881 -6.747672 2.074943 -12.539293 5.942899 6.275628 -4.659157 
0.163675 0.864941 -0.265115 173.736113 22.169588 -79.147135 10.271461 -2.433310 -79.843639 -10.394912 19.105797 99.098234 0.607340 -5.526261 22.267730 -17.476257 17.570825 -24.393907 -11.194117 -4.356446 -84.109867 0.561892 -15.555592 125.256218 -1.808378 2.393899 13.953146 11.228010 -1.312857 -10.031245 1.349356 -5.331689 74.365632 0.981970 -0.568772 4.647845 2.039299 -1.897396 0.168715 -7.005545 -0.681348 -1.741571 4.407996 2.669028 -11.799128 -16.225165 -32.331629 1.529635 -20.437532 -23.269969 2.621774 17.935433 -49.655167 -26.485767 2.387402 -5.381339 -11.159647 -4.331897 -0.373067 -12.176464 7.454315 36.328520 1.313967 18.501071 24.683285 2.510649 -14.202499 56.197939 -25.345334 -4.040673 1.432975 -15.300896 5.691781 5.783120 -3.960804 
